# xmcd CD database file
#
# Track frame offsets:
#	150
#	13382
#	39742
#	50402
#	64585
#	73080
#	92040
#	109635
#	132635
#	157365
#	195805
#
# Disc length: 2947 seconds
#
# Revision: 0
# Processed by: cddbd v1.5.2PL0 Copyright (c) Steve Scherf et al.
# Submitted via: CDex 1.70beta2
#
DISCID=9e0b810b
DTITLE=Bob Gordon and Bob Enevoldsen - Moods In Jazz and Reflections in Jazz
DYEAR=1990
DGENRE=Jazz
TTITLE0=Babette
TTITLE1=Moer Blues
TTITLE2=Sonny Boy
TTITLE3=Slow Mood
TTITLE4=Slow
TTITLE5=Just George
TTITLE6=Iron Works
TTITLE7=Loaded with Brass
TTITLE8=Topsy
TTITLE9=Blues and Rhythm
TTITLE10=Don't Be That Way
EXTD=YEAR: 1990
EXTT0=
EXTT1=
EXTT2=
EXTT3=
EXTT4=
EXTT5=
EXTT6=
EXTT7=
EXTT8=
EXTT9=
EXTT10=
PLAYORDER=
